<svg version="1.1" id="Layer_1" xmlns="http://www.w3.org/2000/svg" xmlns:xlink="http://www.w3.org/1999/xlink" x="0px" y="0px"
	 width="100%" viewBox="0 0 200 200" enable-background="new 0 0 200 200" xml:space="preserve">
<path fill="#000000" opacity="1.000000" stroke="none" 
	d="
M201.000000,53.000000 
	C201.000000,102.666664 201.000000,151.833328 201.000000,201.000000 
	C134.333328,201.000000 67.666664,201.000000 1.000000,201.000000 
	C1.000000,134.333328 1.000000,67.666664 1.000000,1.000000 
	C67.666664,1.000000 134.333328,1.000000 201.000000,1.000000 
	C201.000000,18.166666 201.000000,35.333332 201.000000,53.000000 
M167.940216,158.998428 
	C174.102402,158.998947 180.278473,158.746948 186.422058,159.085266 
	C190.807327,159.326721 192.106598,157.899490 192.092148,153.470871 
	C191.942215,107.504814 191.944885,61.537903 192.088913,15.571803 
	C192.102615,11.205635 190.895996,9.870980 186.467834,9.905155 
	C161.154434,10.100514 135.838745,9.999977 110.523827,9.999989 
	C78.713638,10.000003 46.903206,10.059101 15.093594,9.924216 
	C11.187285,9.907652 9.495217,10.979778 9.957060,15.014640 
	C10.201678,17.151730 10.000300,19.339865 10.000300,21.504955 
	C10.000303,65.472961 10.056383,109.441147 9.912505,153.408676 
	C9.898310,157.746613 11.041253,159.325180 15.516943,159.092087 
	C21.992853,158.754791 28.501461,159.045288 35.000927,159.992889 
	C35.002254,163.475281 35.226864,166.975449 34.951115,170.435760 
	C34.564556,175.286560 37.341854,178.332275 41.230278,179.316559 
	C44.290909,180.091309 48.090874,179.314346 51.214771,178.227432 
	C63.177624,174.065033 75.000145,169.499268 86.981781,165.963577 
	C88.337646,171.940933 85.846062,175.399796 80.075989,177.061508 
	C78.044846,177.646439 76.238670,179.012482 73.218109,180.609711 
	C92.253754,180.609711 109.827339,180.609711 128.978073,180.609711 
	C121.766029,176.423065 111.694984,176.225266 115.870010,165.103226 
	C128.265961,169.737106 140.684372,174.312027 153.049942,179.025604 
	C161.301575,182.170990 166.982864,178.562561 166.997116,169.985321 
	C167.003220,166.319885 167.001846,162.654465 167.940216,158.998428 
M68.751678,186.000259 
	C67.616516,186.067749 66.481361,186.135223 65.363373,186.201675 
	C64.247177,190.437622 65.474411,192.105286 69.899956,192.070877 
	C90.523758,191.910599 111.150230,191.907318 131.773956,192.072891 
	C136.247574,192.108810 137.915390,190.735428 136.535767,186.000015 
	C114.228043,186.000015 91.964981,186.000015 68.751678,186.000259 
z"/>
<path fill="#5F5D14" opacity="1.000000" stroke="none" 
	d="
M86.875038,165.084045 
	C75.000145,169.499268 63.177624,174.065033 51.214771,178.227432 
	C48.090874,179.314346 44.290909,180.091309 41.230278,179.316559 
	C37.341854,178.332275 34.564556,175.286560 34.951115,170.435760 
	C35.226864,166.975449 35.002254,163.475281 35.084778,159.064636 
	C35.111549,152.735550 35.054466,147.334717 34.999451,141.528259 
	C35.000114,139.770493 34.998714,138.418381 35.082558,136.684647 
	C36.223675,128.992706 40.637215,125.468132 46.802189,127.119957 
	C48.384956,127.544037 49.858589,128.360229 51.408974,128.922958 
	C58.973679,131.668732 66.547401,134.389648 74.305588,137.405334 
	C77.734360,139.200668 80.975487,140.710007 84.487175,142.408539 
	C88.131813,143.701447 91.505890,144.805145 95.114258,146.220581 
	C99.346649,147.926987 103.350685,149.434341 107.473526,146.006104 
	C111.200302,144.768982 114.543831,143.440445 118.221687,141.952423 
	C122.002083,140.236740 125.448166,138.680573 129.292740,137.077957 
	C137.528625,134.052094 145.392685,131.140533 153.196152,128.074768 
	C161.543655,124.795258 166.843292,128.164078 167.001862,137.407623 
	C167.001175,139.221069 167.002518,140.616013 167.003189,142.477875 
	C167.002960,148.292847 167.003418,153.640945 167.003860,158.989029 
	C167.001846,162.654465 167.003220,166.319885 166.997116,169.985321 
	C166.982864,178.562561 161.301575,182.170990 153.049942,179.025604 
	C140.684372,174.312027 128.265961,169.737106 115.296295,164.792358 
	C113.782768,164.282074 112.842949,164.082626 111.708176,163.596542 
	C104.260475,159.065018 97.128410,159.387939 89.746605,163.925491 
	C88.549583,164.345093 87.712311,164.714569 86.875038,165.084045 
z"/>
<path fill="#C7C33D" opacity="1.000000" stroke="none" 
	d="
M34.997387,141.933899 
	C35.054466,147.334717 35.111549,152.735550 35.082375,158.602173 
	C28.501461,159.045288 21.992853,158.754791 15.516943,159.092087 
	C11.041253,159.325180 9.898310,157.746613 9.912505,153.408676 
	C10.056383,109.441147 10.000303,65.472961 10.000300,21.504955 
	C10.000300,19.339865 10.201678,17.151730 9.957060,15.014640 
	C9.495217,10.979778 11.187285,9.907652 15.093594,9.924216 
	C46.903206,10.059101 78.713638,10.000003 110.523827,9.999989 
	C135.838745,9.999977 161.154434,10.100514 186.467834,9.905155 
	C190.895996,9.870980 192.102615,11.205635 192.088913,15.571803 
	C191.944885,61.537903 191.942215,107.504814 192.092148,153.470871 
	C192.106598,157.899490 190.807327,159.326721 186.422058,159.085266 
	C180.278473,158.746948 174.102402,158.998947 167.472046,158.993729 
	C167.003418,153.640945 167.002960,148.292847 167.445221,142.473175 
	C181.039429,143.059189 185.977188,134.642578 185.985001,127.414131 
	C186.019531,95.432419 186.112137,63.450020 185.934525,31.469254 
	C185.877869,21.268471 179.784897,15.983097 170.263977,15.988400 
	C124.123650,16.014093 77.983299,15.995598 31.842960,16.003418 
	C21.774660,16.005123 16.006454,21.779503 16.003445,31.855837 
	C15.994044,63.337872 15.990897,94.819916 16.026308,126.301918 
	C16.028120,127.912498 16.194967,129.587677 16.654362,131.122192 
	C19.163849,139.504608 23.753952,142.166809 34.997387,141.933899 
z"/>
<path fill="#C7C33D" opacity="1.000000" stroke="none" 
	d="
M111.903137,163.883179 
	C112.842949,164.082626 113.782768,164.282074 114.927383,164.782333 
	C111.694984,176.225266 121.766029,176.423065 128.978073,180.609711 
	C109.827339,180.609711 92.253754,180.609711 73.218109,180.609711 
	C76.238670,179.012482 78.044846,177.646439 80.075989,177.061508 
	C85.846062,175.399796 88.337646,171.940933 86.928406,165.523804 
	C87.712311,164.714569 88.549583,164.345093 90.205750,163.978775 
	C97.984138,163.949020 104.943634,163.916092 111.903137,163.883179 
z"/>
<path fill="#C7C33D" opacity="1.000000" stroke="none" 
	d="
M69.226799,186.000137 
	C91.964981,186.000015 114.228043,186.000015 136.535767,186.000015 
	C137.915390,190.735428 136.247574,192.108810 131.773956,192.072891 
	C111.150230,191.907318 90.523758,191.910599 69.899956,192.070877 
	C65.474411,192.105286 64.247177,190.437622 65.363373,186.201675 
	C66.481361,186.135223 67.616516,186.067749 69.226799,186.000137 
z"/>
<path fill="#C7C33D" opacity="1.000000" stroke="none" 
	d="
M167.003891,136.989151 
	C166.843292,128.164078 161.543655,124.795258 153.196152,128.074768 
	C145.392685,131.140533 137.528625,134.052094 128.833466,137.024796 
	C110.023094,137.051834 92.070518,137.085587 74.117935,137.119354 
	C66.547401,134.389648 58.973679,131.668732 51.408974,128.922958 
	C49.858589,128.360229 48.384956,127.544037 46.802189,127.119957 
	C40.637215,125.468132 36.223675,128.992706 34.637680,136.656448 
	C33.274643,137.006622 32.441738,137.001434 31.608826,137.000427 
	C23.325487,136.990417 21.001099,134.703217 21.000650,126.541336 
	C20.998890,94.390694 20.991247,62.240051 21.007753,30.089418 
	C21.010859,24.039787 23.767952,21.021713 29.480291,21.017965 
	C77.123184,20.986694 124.766121,20.989077 172.409012,21.015011 
	C178.009659,21.018061 180.913193,23.934238 180.986496,29.478931 
	C181.050354,34.309013 181.000061,39.140606 181.000076,43.971531 
	C181.000076,71.957581 181.010818,99.943642 180.991684,127.929672 
	C180.987411,134.167450 178.195999,136.936905 172.001312,136.997009 
	C170.335693,137.013184 168.669708,136.992767 167.003891,136.989151 
M87.006096,113.502151 
	C93.585411,118.519012 100.440384,122.774818 108.769257,117.567841 
	C112.530540,115.216385 115.800468,112.078972 120.053612,108.692841 
	C121.585213,111.536659 123.572876,114.308891 124.609108,117.400055 
	C125.727936,120.737617 125.957176,124.373390 126.611008,128.086563 
	C128.101349,127.936363 129.510712,127.794334 130.909378,127.653381 
	C129.930084,115.083130 127.617966,109.647469 121.429924,104.621284 
	C122.904182,98.732506 124.341599,92.990883 125.865021,86.905716 
	C131.983917,86.905716 138.270569,86.905716 144.759552,86.905716 
	C144.759552,85.187859 144.759552,83.799812 144.759552,81.941223 
	C138.114258,81.941223 131.688950,81.941223 125.839912,81.941223 
	C124.281227,75.747223 122.867668,70.129921 121.384621,64.236496 
	C129.904312,59.123802 129.343491,49.901470 131.120651,41.266243 
	C129.134460,41.266243 127.735245,41.266243 126.367867,41.266243 
	C125.148247,53.456715 123.813164,56.642281 118.815460,59.794537 
	C115.733826,56.897438 112.685112,54.031281 109.632408,51.161377 
	C116.169380,44.150291 115.278961,36.432388 110.508080,31.327818 
	C105.599907,26.076342 97.059502,25.965204 91.926651,30.600616 
	C86.361160,35.626736 86.632011,43.942036 92.260315,51.195095 
	C89.092926,54.198711 85.978424,57.152180 82.829842,60.137959 
	C76.535965,55.204273 76.670166,48.065716 75.569916,41.015877 
	C74.602280,41.015877 73.643822,40.976852 72.690926,41.032646 
	C72.227448,41.059788 71.774353,41.264175 70.865753,41.510578 
	C72.345261,50.145950 72.543678,59.121288 80.506348,64.277786 
	C79.033730,70.230637 77.643509,75.850418 76.115280,82.028061 
	C70.184090,82.028061 63.758503,82.028061 57.293053,82.028061 
	C57.293053,83.903618 57.293053,85.293327 57.293053,87.138824 
	C63.994331,87.138824 70.423820,87.138824 76.135384,87.138824 
	C77.699966,93.361504 79.111588,98.975807 80.549828,104.695953 
	C75.241516,108.775383 68.738480,125.118294 71.845261,127.955109 
	C72.974747,127.892555 74.370247,127.815262 75.705750,127.741287 
	C76.478119,120.613167 76.700218,113.648987 83.243820,108.551392 
	C84.430130,110.166862 85.459930,111.569199 87.006096,113.502151 
z"/>
<path fill="#000000" opacity="1.000000" stroke="none" 
	d="
M167.001862,137.407623 
	C168.669708,136.992767 170.335693,137.013184 172.001312,136.997009 
	C178.195999,136.936905 180.987411,134.167450 180.991684,127.929672 
	C181.010818,99.943642 181.000076,71.957581 181.000076,43.971531 
	C181.000061,39.140606 181.050354,34.309013 180.986496,29.478931 
	C180.913193,23.934238 178.009659,21.018061 172.409012,21.015011 
	C124.766121,20.989077 77.123184,20.986694 29.480291,21.017965 
	C23.767952,21.021713 21.010859,24.039787 21.007753,30.089418 
	C20.991247,62.240051 20.998890,94.390694 21.000650,126.541336 
	C21.001099,134.703217 23.325487,136.990417 31.608826,137.000427 
	C32.441738,137.001434 33.274643,137.006622 34.552429,137.038055 
	C34.998714,138.418381 35.000114,139.770493 34.999451,141.528259 
	C23.753952,142.166809 19.163849,139.504608 16.654362,131.122192 
	C16.194967,129.587677 16.028120,127.912498 16.026308,126.301918 
	C15.990897,94.819916 15.994044,63.337872 16.003445,31.855837 
	C16.006454,21.779503 21.774660,16.005123 31.842960,16.003418 
	C77.983299,15.995598 124.123650,16.014093 170.263977,15.988400 
	C179.784897,15.983097 185.877869,21.268471 185.934525,31.469254 
	C186.112137,63.450020 186.019531,95.432419 185.985001,127.414131 
	C185.977188,134.642578 181.039429,143.059189 167.445892,142.006287 
	C167.002518,140.616013 167.001175,139.221069 167.001862,137.407623 
z"/>
<path fill="#000000" opacity="1.000000" stroke="none" 
	d="
M74.305588,137.405334 
	C92.070518,137.085587 110.023094,137.051834 128.434967,137.071228 
	C125.448166,138.680573 122.002083,140.236740 117.761810,141.912003 
	C106.050613,142.093842 95.133614,142.156601 84.216614,142.219345 
	C80.975487,140.710007 77.734360,139.200668 74.305588,137.405334 
z"/>
<path fill="#C4C03B" opacity="1.000000" stroke="none" 
	d="
M84.487175,142.408539 
	C95.133614,142.156601 106.050613,142.093842 117.427490,142.071503 
	C114.543831,143.440445 111.200302,144.768982 107.305359,145.676682 
	C101.498489,141.801025 99.352821,141.919022 94.879967,145.908844 
	C91.505890,144.805145 88.131813,143.701447 84.487175,142.408539 
z"/>
<path fill="#000000" opacity="1.000000" stroke="none" 
	d="
M111.708176,163.596542 
	C104.943634,163.916092 97.984138,163.949020 90.565491,163.928665 
	C97.128410,159.387939 104.260475,159.065018 111.708176,163.596542 
z"/>
<path fill="#000000" opacity="1.000000" stroke="none" 
	d="
M95.114258,146.220581 
	C99.352821,141.919022 101.498489,141.801025 106.922112,145.585266 
	C103.350685,149.434341 99.346649,147.926987 95.114258,146.220581 
z"/>
<path fill="#000000" opacity="1.000000" stroke="none" 
	d="
M86.747910,113.236847 
	C85.459930,111.569199 84.430130,110.166862 83.243820,108.551392 
	C76.700218,113.648987 76.478119,120.613167 75.705750,127.741287 
	C74.370247,127.815262 72.974747,127.892555 71.845261,127.955109 
	C68.738480,125.118294 75.241516,108.775383 80.549828,104.695953 
	C79.111588,98.975807 77.699966,93.361504 76.135384,87.138824 
	C70.423820,87.138824 63.994331,87.138824 57.293053,87.138824 
	C57.293053,85.293327 57.293053,83.903618 57.293053,82.028061 
	C63.758503,82.028061 70.184090,82.028061 76.115280,82.028061 
	C77.643509,75.850418 79.033730,70.230637 80.506348,64.277786 
	C72.543678,59.121288 72.345261,50.145950 70.865753,41.510578 
	C71.774353,41.264175 72.227448,41.059788 72.690926,41.032646 
	C73.643822,40.976852 74.602280,41.015877 75.569916,41.015877 
	C76.670166,48.065716 76.535965,55.204273 82.829842,60.137959 
	C85.978424,57.152180 89.092926,54.198711 92.260315,51.195095 
	C86.632011,43.942036 86.361160,35.626736 91.926651,30.600616 
	C97.059502,25.965204 105.599907,26.076342 110.508080,31.327818 
	C115.278961,36.432388 116.169380,44.150291 109.632408,51.161377 
	C112.685112,54.031281 115.733826,56.897438 118.815460,59.794537 
	C123.813164,56.642281 125.148247,53.456715 126.367867,41.266243 
	C127.735245,41.266243 129.134460,41.266243 131.120651,41.266243 
	C129.343491,49.901470 129.904312,59.123802 121.384621,64.236496 
	C122.867668,70.129921 124.281227,75.747223 125.839912,81.941223 
	C131.688950,81.941223 138.114258,81.941223 144.759552,81.941223 
	C144.759552,83.799812 144.759552,85.187859 144.759552,86.905716 
	C138.270569,86.905716 131.983917,86.905716 125.865021,86.905716 
	C124.341599,92.990883 122.904182,98.732506 121.429924,104.621284 
	C127.617966,109.647469 129.930084,115.083130 130.909378,127.653381 
	C129.510712,127.794334 128.101349,127.936363 126.611008,128.086563 
	C125.957176,124.373390 125.727936,120.737617 124.609108,117.400055 
	C123.572876,114.308891 121.585213,111.536659 120.053612,108.692841 
	C115.800468,112.078972 112.530540,115.216385 108.769257,117.567841 
	C100.440384,122.774818 93.585411,118.519012 86.747910,113.236847 
M98.999588,93.499817 
	C98.999588,80.412720 98.999588,67.325615 98.999588,54.161919 
	C87.887039,55.958466 82.420868,66.864815 81.164734,82.162697 
	C80.225021,93.607079 85.302330,112.251183 98.999565,114.827164 
	C98.999565,107.987686 98.999565,101.243690 98.999588,93.499817 
M115.080269,105.538177 
	C123.683197,92.285896 122.563950,71.275803 112.591042,59.318687 
	C110.451012,56.752865 106.740517,55.496891 103.323311,53.369759 
	C103.323311,74.651215 103.323311,94.705002 103.323311,114.758789 
	C103.747368,115.101700 104.171425,115.444611 104.595490,115.787529 
	C108.046387,112.617546 111.497284,109.447571 115.080269,105.538177 
M96.154671,33.357113 
	C95.452980,34.062828 94.658966,34.698883 94.065094,35.485947 
	C91.012421,39.531727 91.863632,44.181175 96.261826,47.782375 
	C98.992386,50.018135 104.038361,49.399429 106.897964,46.639893 
	C110.157204,43.494705 110.562866,39.883408 108.513634,36.103249 
	C106.432510,32.264252 101.766083,31.178322 96.154671,33.357113 
z"/>
<path fill="#C7C33D" opacity="1.000000" stroke="none" 
	d="
M98.999573,93.999756 
	C98.999565,101.243690 98.999565,107.987686 98.999565,114.827164 
	C85.302330,112.251183 80.225021,93.607079 81.164734,82.162697 
	C82.420868,66.864815 87.887039,55.958466 98.999588,54.161919 
	C98.999588,67.325615 98.999588,80.412720 98.999573,93.999756 
z"/>
<path fill="#C7C33D" opacity="1.000000" stroke="none" 
	d="
M115.014221,105.907883 
	C111.497284,109.447571 108.046387,112.617546 104.595490,115.787529 
	C104.171425,115.444611 103.747368,115.101700 103.323311,114.758789 
	C103.323311,94.705002 103.323311,74.651215 103.323311,53.369759 
	C106.740517,55.496891 110.451012,56.752865 112.591042,59.318687 
	C122.563950,71.275803 123.683197,92.285896 115.014221,105.907883 
z"/>
<path fill="#C7C33D" opacity="1.000000" stroke="none" 
	d="
M96.514648,33.192017 
	C101.766083,31.178322 106.432510,32.264252 108.513634,36.103249 
	C110.562866,39.883408 110.157204,43.494705 106.897964,46.639893 
	C104.038361,49.399429 98.992386,50.018135 96.261826,47.782375 
	C91.863632,44.181175 91.012421,39.531727 94.065094,35.485947 
	C94.658966,34.698883 95.452980,34.062828 96.514648,33.192017 
z"/>
</svg>